<svg width="197" height="31" viewBox="0 0 197 31" fill="none" xmlns="http://www.w3.org/2000/svg">
<path d="M14.1484 20.8828H6.78906V15.6094H14.1484C15.1797 15.6094 16.0312 15.4609 16.7031 15.1641C17.375 14.8516 17.8672 14.4375 18.1797 13.9219C18.5078 13.3906 18.6719 12.7891 18.6719 12.1172C18.6719 11.3828 18.5078 10.7031 18.1797 10.0781C17.8672 9.45312 17.375 8.95312 16.7031 8.57812C16.0312 8.1875 15.1797 7.99219 14.1484 7.99219H9.29688V30H2.54688V2.69531H14.1484C16.4922 2.69531 18.5 3.10156 20.1719 3.91406C21.8594 4.72656 23.1484 5.83594 24.0391 7.24219C24.9453 8.64844 25.3984 10.2578 25.3984 12.0703C25.3984 13.3828 25.1406 14.5859 24.625 15.6797C24.125 16.7578 23.3828 17.6875 22.3984 18.4688C21.4297 19.25 20.25 19.8516 18.8594 20.2734C17.4844 20.6797 15.9141 20.8828 14.1484 20.8828ZM53.9688 15.7969V16.9219C53.9688 19 53.6562 20.8672 53.0312 22.5234C52.4219 24.1797 51.5547 25.5938 50.4297 26.7656C49.3047 27.9375 47.9609 28.8359 46.3984 29.4609C44.8516 30.0703 43.1406 30.375 41.2656 30.375C39.3906 30.375 37.6719 30.0703 36.1094 29.4609C34.5625 28.8359 33.2188 27.9375 32.0781 26.7656C30.9375 25.5938 30.0547 24.1797 29.4297 22.5234C28.8047 20.8672 28.4922 19 28.4922 16.9219V15.7969C28.4922 13.7031 28.7969 11.8359 29.4062 10.1953C30.0312 8.53906 30.9062 7.125 32.0312 5.95312C33.1719 4.76562 34.5156 3.86719 36.0625 3.25781C37.625 2.63281 39.3438 2.32031 41.2188 2.32031C43.0938 2.32031 44.8047 2.63281 46.3516 3.25781C47.9141 3.86719 49.2656 4.76562 50.4062 5.95312C51.5469 7.125 52.4219 8.53906 53.0312 10.1953C53.6562 11.8359 53.9688 13.7031 53.9688 15.7969ZM47.1953 16.9219V15.75C47.1953 14.4375 47.0547 13.2812 46.7734 12.2812C46.5078 11.2656 46.1172 10.4141 45.6016 9.72656C45.1016 9.02344 44.4766 8.49219 43.7266 8.13281C42.9922 7.75781 42.1562 7.57031 41.2188 7.57031C40.2656 7.57031 39.4141 7.75781 38.6641 8.13281C37.9297 8.49219 37.3125 9.02344 36.8125 9.72656C36.3125 10.4141 35.9297 11.2656 35.6641 12.2812C35.4141 13.2812 35.2891 14.4375 35.2891 15.75V16.9219C35.2891 18.2188 35.4141 19.375 35.6641 20.3906C35.9297 21.4062 36.3203 22.2734 36.8359 22.9922C37.3516 23.6953 37.9766 24.2344 38.7109 24.6094C39.4609 24.9688 40.3125 25.1484 41.2656 25.1484C42.2031 25.1484 43.0391 24.9688 43.7734 24.6094C44.5078 24.2344 45.125 23.6953 45.625 22.9922C46.1406 22.2734 46.5312 21.4062 46.7969 20.3906C47.0625 19.375 47.1953 18.2188 47.1953 16.9219ZM73.9141 2.69531H80.6875V20.4609C80.6875 22.5859 80.2031 24.3906 79.2344 25.875C78.2812 27.3594 76.9453 28.4844 75.2266 29.25C73.5234 30 71.5234 30.375 69.2266 30.375C66.9609 30.375 64.9609 30 63.2266 29.25C61.5078 28.4844 60.1641 27.3594 59.1953 25.875C58.2266 24.3906 57.7422 22.5859 57.7422 20.4609V2.69531H64.4922V20.4609C64.4922 21.5391 64.6797 22.4297 65.0547 23.1328C65.4297 23.8203 65.9688 24.3281 66.6719 24.6562C67.375 24.9688 68.2266 25.125 69.2266 25.125C70.2422 25.125 71.0938 24.9688 71.7812 24.6562C72.4688 24.3281 72.9922 23.8203 73.3516 23.1328C73.7266 22.4297 73.9141 21.5391 73.9141 20.4609V2.69531ZM96.8828 20.8828H89.5234V15.6094H96.8828C97.9141 15.6094 98.7656 15.4609 99.4375 15.1641C100.109 14.8516 100.602 14.4375 100.914 13.9219C101.242 13.3906 101.406 12.7891 101.406 12.1172C101.406 11.3828 101.242 10.7031 100.914 10.0781C100.602 9.45312 100.109 8.95312 99.4375 8.57812C98.7656 8.1875 97.9141 7.99219 96.8828 7.99219H92.0312V30H85.2812V2.69531H96.8828C99.2266 2.69531 101.234 3.10156 102.906 3.91406C104.594 4.72656 105.883 5.83594 106.773 7.24219C107.68 8.64844 108.133 10.2578 108.133 12.0703C108.133 13.3828 107.875 14.5859 107.359 15.6797C106.859 16.7578 106.117 17.6875 105.133 18.4688C104.164 19.25 102.984 19.8516 101.594 20.2734C100.219 20.6797 98.6484 20.8828 96.8828 20.8828ZM132.156 24.7266V30H116.453V24.7266H132.156ZM118.844 2.69531V30H112.094V2.69531H118.844ZM130.141 13.2422V18.5156H116.453V13.2422H130.141ZM132.18 2.69531V7.99219H116.453V2.69531H132.18ZM172.375 6.51562L163.07 30H158.641L169.867 2.69531H172.703L172.375 6.51562ZM180.414 30L171.18 6.42188L170.875 2.69531H173.734L184.82 30H180.414ZM179.781 19.8984V23.4609H163.562V19.8984H179.781ZM193.211 2.69531V30H188.875V2.69531H193.211Z" fill="white"/>
<path d="M139.609 25.4062C139.609 23.9375 140.062 22.7031 140.969 21.7031C141.906 20.6719 143.25 20.1562 145 20.1562C146.75 20.1562 148.078 20.6719 148.984 21.7031C149.922 22.7031 150.391 23.9375 150.391 25.4062C150.391 26.8438 149.922 28.0625 148.984 29.0625C148.078 30.0625 146.75 30.5625 145 30.5625C143.25 30.5625 141.906 30.0625 140.969 29.0625C140.062 28.0625 139.609 26.8438 139.609 25.4062Z" fill="#FA5007"/>
</svg>
